<svg width="24" height="24" viewBox="0 0 24 24" fill="none" xmlns="http://www.w3.org/2000/svg">
<g clip-path="url(#clip0_724_759)">
<path d="M8.84841 1.34265V3.30894H14.7473V1.34265H16.7136V3.30894H20.6462C20.9069 3.30894 21.157 3.41252 21.3413 3.5969C21.5257 3.78128 21.6293 4.03134 21.6293 4.29209V20.0224C21.6293 20.2832 21.5257 20.5332 21.3413 20.7176C21.157 20.902 20.9069 21.0056 20.6462 21.0056H2.94953C2.68878 21.0056 2.43872 20.902 2.25434 20.7176C2.06997 20.5332 1.96638 20.2832 1.96638 20.0224V4.29209C1.96638 4.03134 2.06997 3.78128 2.25434 3.5969C2.43872 3.41252 2.68878 3.30894 2.94953 3.30894H6.88211V1.34265H8.84841ZM19.663 8.22467H3.93268V19.0393H19.663V8.22467ZM14.7827 10.3247L16.1728 11.7148L11.3063 16.5814L7.82987 13.105L9.222 11.7148L11.3073 13.8011L14.7837 10.3247H14.7827Z" fill="white"/>
</g>
<defs>
<clipPath id="clip0_724_759">
<rect width="23.5955" height="23.5955" fill="white" transform="translate(0 0.359497)"/>
</clipPath>
</defs>
</svg>
