<svg width="24" height="25" viewBox="0 0 24 25" fill="none" xmlns="http://www.w3.org/2000/svg">
<g clip-path="url(#clip0_218_227)">
<path d="M1.96649 10.2051V4.79784C1.96649 4.5371 2.07007 4.28703 2.25445 4.10265C2.43882 3.91828 2.68889 3.8147 2.94964 3.8147H20.6463C20.907 3.8147 21.1571 3.91828 21.3415 4.10265C21.5258 4.28703 21.6294 4.5371 21.6294 4.79784V10.2051C20.9775 10.2051 20.3524 10.4641 19.8914 10.925C19.4305 11.386 19.1715 12.0111 19.1715 12.663C19.1715 13.3149 19.4305 13.94 19.8914 14.401C20.3524 14.8619 20.9775 15.1209 21.6294 15.1209V20.5282C21.6294 20.7889 21.5258 21.039 21.3415 21.2234C21.1571 21.4077 20.907 21.5113 20.6463 21.5113H2.94964C2.68889 21.5113 2.43882 21.4077 2.25445 21.2234C2.07007 21.039 1.96649 20.7889 1.96649 20.5282V15.1209C2.61836 15.1209 3.24353 14.8619 3.70446 14.401C4.1654 13.94 4.42436 13.3149 4.42436 12.663C4.42436 12.0111 4.1654 11.386 3.70446 10.925C3.24353 10.4641 2.61836 10.2051 1.96649 10.2051ZM13.7642 5.78099H3.93278V8.69897C4.67133 9.06499 5.29294 9.63005 5.72752 10.3305C6.1621 11.0309 6.39238 11.8387 6.39238 12.663C6.39238 13.4873 6.1621 14.2952 5.72752 14.9956C5.29294 15.696 4.67133 16.261 3.93278 16.6271V19.545H13.7642V5.78099ZM15.7305 5.78099V19.545H19.6631V16.6271C18.9246 16.261 18.303 15.696 17.8684 14.9956C17.4338 14.2952 17.2035 13.4873 17.2035 12.663C17.2035 11.8387 17.4338 11.0309 17.8684 10.3305C18.303 9.63005 18.9246 9.06499 19.6631 8.69897V5.78099H15.7305Z" fill="white"/>
</g>
<defs>
<clipPath id="clip0_218_227">
<rect width="23.5955" height="23.5955" fill="white" transform="translate(0 0.865234)"/>
</clipPath>
</defs>
</svg>
