<svg width="24" height="24" viewBox="0 0 24 24" fill="none" xmlns="http://www.w3.org/2000/svg">
<g clip-path="url(#clip0_218_224)">
<path d="M4.0878 17.7753H6.15758V19.7416H18.5763V4.01121H6.15758V5.97751H4.0878V3.02807C4.0878 2.76732 4.19683 2.51725 4.39091 2.33288C4.58499 2.1485 4.84822 2.04492 5.12269 2.04492H19.6112C19.8856 2.04492 20.1489 2.1485 20.3429 2.33288C20.537 2.51725 20.646 2.76732 20.646 3.02807V20.7247C20.646 20.9854 20.537 21.2355 20.3429 21.4199C20.1489 21.6043 19.8856 21.7078 19.6112 21.7078H5.12269C4.84822 21.7078 4.58499 21.6043 4.39091 21.4199C4.19683 21.2355 4.0878 20.9854 4.0878 20.7247V17.7753ZM6.15758 10.8932H13.4018V12.8595H6.15758V15.809L0.983124 11.8764L6.15758 7.9438V10.8932Z" fill="white"/>
</g>
<defs>
<clipPath id="clip0_218_224">
<rect width="23.5955" height="23.5955" fill="white" transform="translate(0 0.0786133)"/>
</clipPath>
</defs>
</svg>
