<svg width="35" height="35" viewBox="0 0 35 35" fill="none" xmlns="http://www.w3.org/2000/svg">
<g clip-path="url(#clip0_221_366)">
<path d="M17.6101 3.75659C25.3884 3.75659 31.6935 10.0617 31.6935 17.8399C31.6935 18.8638 31.585 19.8609 31.3766 20.8228L28.8669 18.3117C28.9703 15.8397 28.257 13.4025 26.8373 11.3762C25.4177 9.34992 23.3704 7.84729 21.0118 7.10029C18.6531 6.35329 16.1141 6.40346 13.7868 7.24305C11.4595 8.08264 9.47322 9.66496 8.13468 11.7457C6.79614 13.8265 6.17974 16.2901 6.38064 18.756C6.58154 21.222 7.58857 23.5533 9.24626 25.3899C10.904 27.2266 13.1201 28.4666 15.5527 28.9184C17.9852 29.3702 20.4988 29.0087 22.7055 27.8898C23.243 28.7417 23.9993 29.4338 24.8954 29.8939C22.6987 31.2248 20.1786 31.9268 17.6101 31.9233C9.8319 31.9233 3.52679 25.6182 3.52679 17.8399C3.52679 10.0617 9.8319 3.75659 17.6101 3.75659ZM27.4685 20.8988L29.4598 22.8902C29.8475 23.2777 30.1137 23.7699 30.2257 24.3065C30.3378 24.843 30.2908 25.4006 30.0906 25.9109C29.8905 26.4212 29.5457 26.8619 29.0988 27.1792C28.6518 27.4964 28.1219 27.6764 27.5742 27.6969C27.0264 27.7175 26.4846 27.5778 26.0151 27.295C25.5456 27.0121 25.1688 26.5984 24.9309 26.1046C24.693 25.6108 24.6044 25.0583 24.6759 24.5148C24.7474 23.9714 24.9759 23.4606 25.3334 23.0451L25.4771 22.8902L27.4685 20.8988ZM17.6101 22.0649C19.6747 22.0649 21.5323 22.9536 22.821 24.3704L21.4901 25.5815C20.3775 25.1379 19.0438 24.8816 17.6101 24.8816C16.1764 24.8816 14.8428 25.1393 13.7302 25.5801L12.3993 24.369C13.0587 23.6422 13.8631 23.0617 14.7606 22.6648C15.6581 22.268 16.6288 22.0636 17.6101 22.0649ZM12.681 15.0233C13.2412 15.0233 13.7786 15.2458 14.1747 15.642C14.5709 16.0382 14.7935 16.5755 14.7935 17.1358C14.7935 17.696 14.5709 18.2334 14.1747 18.6295C13.7786 19.0257 13.2412 19.2483 12.681 19.2483C12.1207 19.2483 11.5834 19.0257 11.1872 18.6295C10.791 18.2334 10.5685 17.696 10.5685 17.1358C10.5685 16.5755 10.791 16.0382 11.1872 15.642C11.5834 15.2458 12.1207 15.0233 12.681 15.0233ZM22.5393 15.0233C23.0996 15.0233 23.6369 15.2458 24.0331 15.642C24.4292 16.0382 24.6518 16.5755 24.6518 17.1358C24.6518 17.696 24.4292 18.2334 24.0331 18.6295C23.6369 19.0257 23.0996 19.2483 22.5393 19.2483C21.979 19.2483 21.4417 19.0257 21.0455 18.6295C20.6494 18.2334 20.4268 17.696 20.4268 17.1358C20.4268 16.5755 20.6494 16.0382 21.0455 15.642C21.4417 15.2458 21.979 15.0233 22.5393 15.0233Z" fill="white"/>
</g>
<defs>
<clipPath id="clip0_221_366">
<rect width="33.8" height="33.8" fill="white" transform="translate(0.709961 0.939941)"/>
</clipPath>
</defs>
</svg>
