<svg width="24" height="24" viewBox="0 0 24 24" fill="none" xmlns="http://www.w3.org/2000/svg">
<g clip-path="url(#clip0_218_221)">
<path d="M2.94964 3.24158H20.6463C20.907 3.24158 21.1571 3.34516 21.3415 3.52953C21.5258 3.71391 21.6294 3.96398 21.6294 4.22472V19.9551C21.6294 20.2158 21.5258 20.4659 21.3415 20.6502C21.1571 20.8346 20.907 20.9382 20.6463 20.9382H2.94964C2.68889 20.9382 2.43882 20.8346 2.25445 20.6502C2.07007 20.4659 1.96649 20.2158 1.96649 19.9551V4.22472C1.96649 3.96398 2.07007 3.71391 2.25445 3.52953C2.43882 3.34516 2.68889 3.24158 2.94964 3.24158ZM19.6631 11.1067H3.93278V18.9719H19.6631V11.1067ZM19.6631 9.14045V5.20787H3.93278V9.14045H19.6631ZM13.7642 15.0393H17.6968V17.0056H13.7642V15.0393Z" fill="white"/>
</g>
<defs>
<clipPath id="clip0_218_221">
<rect width="23.5955" height="23.5955" fill="white" transform="translate(0 0.292114)"/>
</clipPath>
</defs>
</svg>
