<svg width="16" height="15" viewBox="0 0 16 15" fill="none" xmlns="http://www.w3.org/2000/svg">
<path d="M8.00016 10.625C8.70741 10.625 9.38568 10.3616 9.88578 9.89277C10.3859 9.42393 10.6668 8.78804 10.6668 8.125H5.3335C5.3335 8.78804 5.61445 9.42393 6.11454 9.89277C6.61464 10.3616 7.29292 10.625 8.00016 10.625ZM6.66683 6.25C6.66683 6.41576 6.59659 6.57473 6.47157 6.69194C6.34654 6.80915 6.17697 6.875 6.00016 6.875C5.82335 6.875 5.65378 6.80915 5.52876 6.69194C5.40373 6.57473 5.3335 6.41576 5.3335 6.25C5.3335 6.08424 5.40373 5.92527 5.52876 5.80806C5.65378 5.69085 5.82335 5.625 6.00016 5.625C6.17697 5.625 6.34654 5.69085 6.47157 5.80806C6.59659 5.92527 6.66683 6.08424 6.66683 6.25ZM10.0002 6.875C10.177 6.875 10.3465 6.80915 10.4716 6.69194C10.5966 6.57473 10.6668 6.41576 10.6668 6.25C10.6668 6.08424 10.5966 5.92527 10.4716 5.80806C10.3465 5.69085 10.177 5.625 10.0002 5.625C9.82335 5.625 9.65378 5.69085 9.52876 5.80806C9.40373 5.92527 9.3335 6.08424 9.3335 6.25C9.3335 6.41576 9.40373 6.57473 9.52876 6.69194C9.65378 6.80915 9.82335 6.875 10.0002 6.875Z" fill="white"/>
<path fill-rule="evenodd" clip-rule="evenodd" d="M14.6668 7.5C14.6668 10.9519 11.6822 13.75 8.00016 13.75C4.31816 13.75 1.3335 10.9519 1.3335 7.5C1.3335 4.04813 4.31816 1.25 8.00016 1.25C11.6822 1.25 14.6668 4.04813 14.6668 7.5ZM13.3335 7.5C13.3335 8.82608 12.7716 10.0979 11.7714 11.0355C10.7712 11.9732 9.41465 12.5 8.00016 12.5C6.58567 12.5 5.22912 11.9732 4.22893 11.0355C3.22873 10.0979 2.66683 8.82608 2.66683 7.5C2.66683 6.17392 3.22873 4.90215 4.22893 3.96447C5.22912 3.02678 6.58567 2.5 8.00016 2.5C9.41465 2.5 10.7712 3.02678 11.7714 3.96447C12.7716 4.90215 13.3335 6.17392 13.3335 7.5V7.5Z" fill="white"/>
</svg>
