<svg width="24" height="25" viewBox="0 0 24 25" fill="none" xmlns="http://www.w3.org/2000/svg">
<g clip-path="url(#clip0_218_218)">
<path d="M6.34641 19.1854L1.96649 22.6264V4.43822C1.96649 4.17748 2.07007 3.92741 2.25445 3.74303C2.43882 3.55866 2.68889 3.45508 2.94964 3.45508H20.6463C20.907 3.45508 21.1571 3.55866 21.3415 3.74303C21.5258 3.92741 21.6294 4.17748 21.6294 4.43822V18.2023C21.6294 18.463 21.5258 18.7131 21.3415 18.8975C21.1571 19.0818 20.907 19.1854 20.6463 19.1854H6.34641ZM3.93278 18.5808L5.66607 17.2191H19.6631V5.42137H3.93278V18.5808ZM11.8156 14.9579L8.51326 11.6545C8.09841 11.2397 7.86535 10.677 7.86535 10.0903C7.86535 9.79983 7.92257 9.51218 8.03374 9.2438C8.14491 8.97542 8.30785 8.73156 8.51326 8.52615C8.71867 8.32073 8.96253 8.15779 9.23092 8.04662C9.4993 7.93546 9.78695 7.87824 10.0774 7.87824C10.6641 7.87824 11.2268 8.1113 11.6416 8.52615L11.8156 8.70016L11.9897 8.52615C12.1951 8.32073 12.4389 8.15779 12.7073 8.04662C12.9757 7.93546 13.2634 7.87824 13.5539 7.87824C13.8443 7.87824 14.132 7.93546 14.4004 8.04662C14.6688 8.15779 14.9126 8.32073 15.118 8.52615C15.3234 8.73156 15.4864 8.97542 15.5976 9.2438C15.7087 9.51218 15.7659 9.79983 15.7659 10.0903C15.7659 10.3808 15.7087 10.6685 15.5976 10.9369C15.4864 11.2052 15.3234 11.4491 15.118 11.6545L11.8147 14.9569L11.8156 14.9579Z" fill="white"/>
</g>
<defs>
<clipPath id="clip0_218_218">
<rect width="23.5955" height="23.5955" fill="white" transform="translate(0 0.505615)"/>
</clipPath>
</defs>
</svg>
