<svg width="14" height="13" viewBox="0 0 14 13" fill="none" xmlns="http://www.w3.org/2000/svg">
<path d="M3.5 7.31252V1.62578C3.5 1.17713 3.10816 0.836135 2.625 0.836135H0.875C0.391836 0.836135 0 1.19998 0 1.62578V7.29043C0 7.73908 0.391836 8.08008 0.875 8.08008H2.625C3.10898 8.12502 3.5 7.76194 3.5 7.31252ZM13.166 5.81701C13.2 5.68701 13.2173 5.5537 13.2173 5.4199C13.2173 4.84354 12.9045 4.32481 12.4167 4.01631C12.4283 3.93957 12.4341 3.86218 12.4342 3.7847C12.4342 3.21798 12.1317 2.70306 11.6458 2.39253C11.5792 1.51122 10.7853 0.813232 9.81928 0.813232H8.38291C7.40018 0.813232 6.42646 1.11462 5.64033 1.66153L4.6375 2.35957C4.46564 2.47916 4.37511 2.66045 4.37511 2.84529C4.37511 3.16928 4.65648 3.45569 5.03218 3.45569C5.16925 3.45569 5.30753 3.41595 5.42538 3.33353L6.4278 2.63504C6.9878 2.24554 7.68234 2.03048 8.38288 2.03048H9.81925C10.105 2.03048 10.338 2.24623 10.338 2.51164C10.338 2.6005 10.3076 2.63707 10.3076 2.75173C10.3076 3.43652 11.1216 3.20648 11.1216 3.78361C11.1216 4.01857 10.9469 4.06189 10.9469 4.34855C10.9469 4.70325 11.2435 4.90587 11.4822 4.94751C11.7271 4.98994 11.9047 5.18824 11.9047 5.41876C11.9047 5.74986 11.5933 5.75823 11.5933 6.1528C11.5933 6.4712 11.8585 6.73882 12.2047 6.76066C12.4742 6.75647 12.6875 6.98752 12.6875 7.2135C12.6875 7.47832 12.4546 7.69414 12.1688 7.69414H8.40547C8.06531 7.69414 7.74922 7.94856 7.74922 8.28067C7.74922 8.38319 7.77711 8.48577 7.83305 8.57824C8.32344 9.43772 8.53125 10.2528 8.53125 10.4406C8.53125 10.6449 8.36763 10.9685 7.92805 10.9685C7.58543 10.9685 7.53785 10.9455 7.24609 10.2558C6.56934 8.65848 5.55789 7.71928 5.0318 7.71928C4.65445 7.71928 4.375 8.00543 4.375 8.3284C4.375 8.50718 4.4593 8.68438 4.62153 8.80473C6.51055 10.2071 5.78047 12.1875 7.92695 12.1875C9.12734 12.1875 9.84375 11.2988 9.84375 10.4406C9.84375 10.1182 9.69806 9.54664 9.43824 8.93422H12.1688C13.1551 8.93498 14 8.17326 14 7.2135C14 6.64729 13.6691 6.11916 13.166 5.81701Z" fill="white"/>
</svg>
